<?xml version="1.0" encoding="UTF-8"?>
<svg id="_レイヤー_2" data-name="レイヤー 2" xmlns="http://www.w3.org/2000/svg" xmlns:xlink="http://www.w3.org/1999/xlink" viewBox="0 0 301.17 60">
  <defs>
    <style>
      .cls-1 {
        fill: url(#_名称未設定グラデーション_62-2);
      }

      .cls-2 {
        fill: url(#_名称未設定グラデーション_62);
      }
    </style>
    <linearGradient id="_名称未設定グラデーション_62" data-name="名称未設定グラデーション 62" x1="68.45" y1="-52.13" x2="232.71" y2="112.13" gradientUnits="userSpaceOnUse">
      <stop offset="0" stop-color="#ad7905"/>
      <stop offset=".29" stop-color="#ffe791"/>
      <stop offset=".41" stop-color="#d9b766"/>
      <stop offset=".55" stop-color="#c8974c"/>
      <stop offset=".61" stop-color="#c18841"/>
      <stop offset=".64" stop-color="#c89349"/>
      <stop offset=".75" stop-color="#e1b863"/>
      <stop offset=".8" stop-color="#ebc66e"/>
      <stop offset="1" stop-color="#ad7905"/>
    </linearGradient>
    <linearGradient id="_名称未設定グラデーション_62-2" data-name="名称未設定グラデーション 62" x1="71.71" y1="-48.88" x2="229.46" y2="108.88" xlink:href="#_名称未設定グラデーション_62"/>
  </defs>
  <g id="Footer">
    <g>
      <path class="cls-2" d="M290.93,18.22V6.09h-.72c-2.96,0-5.37-2.41-5.37-5.37v-.72H16.32v.72c0,2.96-2.41,5.37-5.37,5.37h-.72v12.13c-5.7.58-10.24,5.84-10.24,12.07s4.53,11.49,10.24,12.07v11.56h.72c2.96,0,5.37,2.41,5.37,5.37v.72h268.52v-.72c0-2.96,2.41-5.37,5.37-5.37h.72v-11.56c5.7-.58,10.24-5.84,10.24-12.07s-4.53-11.49-10.24-12.07ZM290.19,40.97l-.69.02v11.52c-3.18.33-5.72,2.87-6.05,6.05H17.72c-.33-3.18-2.87-5.72-6.05-6.05v-11.52l-.69-.02c-5.26-.18-9.54-4.97-9.54-10.69s4.28-10.51,9.54-10.69l.69-.02V7.48c3.18-.33,5.72-2.87,6.05-6.05h265.73c.33,3.18,2.87,5.72,6.05,6.05v12.1l.69.02c5.26.18,9.54,4.97,9.54,10.69s-4.28,10.51-9.54,10.69Z"/>
      <path class="cls-1" d="M296.15,31.49c.88,0,1.6-1.21,1.6-1.21,0,0-.72-1.22-1.6-1.22-.34,0-.88.17-1.44.45-.03.02-.08.03-.12.05.74-.41,1.24-.89,1.44-1.21.29-.48.34-.85.3-1.08-.05-.34-.51-.43-.51-.43,0,0,.04-.49-.31-.87-.81-.87-1.69-.54-1.69-.54,0,0,.49.41.64,1.01.1.4.14,1.25-.09,1.64-.23.4-.72,1.3-2.53,1.83-1.09-.08-2.75-.22-3.05-.42-.45-.3-.88-.48-1.16-.48-.06,0-.12.02-.18.04v-1.47c.62.09,1.18-.23,1.18-.23,0,0-.74-.46-.4-.8.34-.33,1.05.03,1.21.42.12.29.36.97-.4,1.8-.13.05-.22.08-.22.08,0,0,.06,0,.16-.02-.02.02-.03.03-.05.05l.26-.08c.75-.1,2.4-.38,3.14-1.02,1.43-1.24,1.48-2.61,1.09-3.62-.34-.88-.91-1.66-1.37-1.6-.36.05-.4.45-.4.45,0,0-1.11-1.43-2.02-1.42-.91,0-1.53.46-1.69.42-.16-.05.32.67.56.95.36.4,1.24.56,1.24.56,0,0-.7-.08-1.08.26-.38.34-.07.88-.07.88,0,0,.38-.26.83-.35.64-.12,1.77.12,2.24.76.71.98.16,2.24-.49,2.69-.37.26-.94.52-1.43.72.48-.55.62-1.44.51-1.84-.35-1.18-1.6-2.17-2.82-1.76v-15.77l-.16-.06c-2.52-.88-4.55-2.91-5.43-5.43l-.06-.16H19.36l-.06.16c-.88,2.52-2.91,4.55-5.43,5.43l-.16.06v15.86c-1.26-.56-2.61.44-2.97,1.68-.12.4.03,1.29.51,1.84-.49-.2-1.06-.47-1.43-.72-.65-.45-1.2-1.71-.49-2.69.46-.64,1.6-.88,2.24-.76.45.09.83.35.83.35,0,0,.31-.53-.07-.88-.38-.34-1.08-.26-1.08-.26,0,0,.88-.16,1.24-.56.25-.28.72-1,.56-.95-.16.05-.78-.41-1.69-.42-.91,0-2.02,1.42-2.02,1.42,0,0-.03-.41-.4-.45-.46-.06-1.03.72-1.37,1.6-.39,1.02-.34,2.38,1.09,3.62.74.64,2.39.92,3.14,1.02l.26.08s-.03-.03-.05-.05c.1.01.16.02.16.02,0,0-.09-.03-.22-.08-.76-.83-.52-1.51-.4-1.8.16-.4.87-.76,1.21-.42.34.33-.4.8-.4.8,0,0,.66.37,1.34.19v1.58c-.11-.06-.22-.11-.34-.11-.27,0-.7.18-1.16.48-.3.2-1.96.34-3.05.42-1.81-.53-2.3-1.43-2.53-1.83-.22-.4-.19-1.24-.09-1.64.15-.6.64-1.01.64-1.01,0,0-.88-.33-1.69.54-.36.38-.31.87-.31.87,0,0-.46.1-.51.43-.04.23,0,.6.3,1.08.2.32.7.81,1.44,1.21-.04-.02-.09-.03-.12-.05-.56-.28-1.1-.45-1.44-.45-.88,0-1.6,1.22-1.6,1.22,0,0,.72,1.21,1.6,1.21.34,0,.88-.16,1.44-.44.16-.08.41-.16.67-.24-1.05.43-1.76,1.07-2,1.47-.3.48-.34.85-.31,1.08.05.34.51.44.51.44,0,0-.05.49.31.87.81.87,1.68.55,1.68.55,0,0-.48-.41-.63-1.02-.1-.41-.13-1.25.09-1.64.23-.4.73-1.31,2.57-1.83,1.09.08,2.72.22,3.01.42.45.3.88.48,1.16.48.12,0,.23-.05.34-.11v1.58c-.69-.18-1.34.19-1.34.19,0,0,.74.46.4.8-.34.33-1.05-.03-1.21-.42-.12-.29-.36-.97.4-1.8.13-.05.22-.08.22-.08,0,0-.06,0-.16.02.02-.02.03-.03.05-.05l-.26.08c-.75.1-2.4.38-3.14,1.02-1.43,1.24-1.48,2.61-1.09,3.62.34.88.91,1.66,1.37,1.6.36-.05.4-.45.4-.45,0,0,1.11,1.43,2.02,1.42.91,0,1.53-.46,1.69-.42.16.05-.32-.67-.56-.95-.36-.4-1.24-.56-1.24-.56,0,0,.7.08,1.08-.26.38-.34.07-.88.07-.88,0,0-.38.26-.83.35-.64.12-1.77-.12-2.24-.75-.71-.98-.16-2.24.49-2.69.37-.26.94-.52,1.43-.72-.48.55-.62,1.44-.51,1.84.36,1.24,1.72,2.24,2.97,1.67v15.22l.16.06c2.52.88,4.55,2.91,5.43,5.43l.06.16h262.45l.06-.16c.88-2.52,2.91-4.55,5.43-5.43l.16-.06v-15.14c1.21.41,2.47-.57,2.82-1.76.12-.4-.03-1.29-.51-1.84.49.2,1.06.47,1.43.72.65.45,1.2,1.71.49,2.69-.46.64-1.6.88-2.24.75-.45-.09-.83-.35-.83-.35,0,0-.31.53.07.88.38.34,1.08.26,1.08.26,0,0-.88.16-1.24.56-.25.28-.72,1-.56.95.16-.05.78.41,1.69.42.91,0,2.02-1.42,2.02-1.42,0,0,.03.41.4.45.46.06,1.03-.72,1.37-1.6.39-1.02.34-2.38-1.09-3.62-.74-.64-2.39-.92-3.14-1.02l-.26-.08s.03.03.05.05c-.1-.01-.16-.02-.16-.02,0,0,.09.03.22.08.76.83.52,1.51.4,1.8-.16.4-.87.76-1.21.42-.34-.33.4-.8.4-.8,0,0-.56-.32-1.18-.23v-1.47c.06.02.12.04.18.04.27,0,.7-.18,1.16-.48.3-.2,1.93-.34,3.01-.42,1.84.52,2.34,1.43,2.57,1.83.22.39.19,1.24.09,1.64-.15.61-.63,1.02-.63,1.02,0,0,.88.32,1.68-.55.35-.38.31-.87.31-.87,0,0,.46-.1.51-.44.04-.23-.01-.6-.31-1.08-.25-.4-.95-1.03-2.01-1.47.27.08.51.16.67.24.56.28,1.11.44,1.44.44ZM8.21,30.25v.11h-.03s0-.13,0-.13h.02s0,.03,0,.03ZM286.98,33.22c-.07.04-.13.07-.2.12-.83.65-.57,1.61.16,2.13.01,0,.03.01.04.02v15.05c-2.53.94-4.57,2.98-5.51,5.51H19.69c-.94-2.53-2.98-4.57-5.51-5.51v-15.17c.63-.53.82-1.41.04-2.03-.01-.01-.03-.01-.04-.02v-2.24c.28-.36.46-.76.46-.76,0,0-.18-.41-.46-.77v-2.24s.03-.01.04-.02c.78-.61.59-1.49-.04-2.03v-15.81c2.53-.94,4.57-2.98,5.51-5.51h261.78c.94,2.53,2.98,4.57,5.51,5.51v15.68s-.03.01-.04.02c-.73.52-.99,1.48-.16,2.13.06.05.13.08.2.12v1.96c-.37.39-.62.95-.62.95,0,0,.25.56.62.94v1.96ZM292.8,30.25v-.03h.02s0,.13,0,.13h-.02s0-.1,0-.1Z"/>
    </g>
  </g>
</svg>