<?xml version="1.0" encoding="UTF-8"?>
<svg id="_レイヤー_2" data-name="レイヤー 2" xmlns="http://www.w3.org/2000/svg" xmlns:xlink="http://www.w3.org/1999/xlink" viewBox="0 0 272.8 26.41">
  <defs>
    <style>
      .cls-1 {
        fill: url(#_名称未設定グラデーション_535);
      }
    </style>
    <linearGradient id="_名称未設定グラデーション_535" data-name="名称未設定グラデーション 535" x1="136.4" y1="0" x2="136.4" y2="26.41" gradientUnits="userSpaceOnUse">
      <stop offset="0" stop-color="#fff" stop-opacity="0"/>
      <stop offset="1" stop-color="#fff" stop-opacity=".4"/>
    </linearGradient>
  </defs>
  <g id="Footer">
    <path class="cls-1" d="M.45,26.41h271.74s-.01-.03-.01-.03c0,0,.25-.56.62-.95v-1.96c-.07-.04-.13-.07-.2-.12-.83-.65-.57-1.61.16-2.13.01,0,.03-.01.04-.02V5.51c-2.53-.94-4.57-2.98-5.51-5.51H5.51c-.94,2.53-2.98,4.57-5.51,5.51v15.81c.63.53.82,1.41.04,2.03-.01.01-.03.01-.04.02v2.24c.28.36.46.77.46.77,0,0,0,.01-.01.03Z"/>
  </g>
</svg>