<?xml version="1.0" encoding="UTF-8"?>
<svg id="_レイヤー_2" data-name="レイヤー 2" xmlns="http://www.w3.org/2000/svg" xmlns:xlink="http://www.w3.org/1999/xlink" viewBox="0 0 520 10">
  <defs>
    <style>
      .cls-1 {
        mask: url(#mask);
      }

      .cls-2 {
        filter: url(#luminosity-noclip);
      }

      .cls-3 {
        mask: url(#mask-1);
      }

      .cls-4 {
        fill: url(#_名称未設定グラデーション_110);
      }

      .cls-5 {
        fill: url(#_名称未設定グラデーション_887);
        mix-blend-mode: multiply;
      }
    </style>
    <filter id="luminosity-noclip" x="0" y="0" width="520" height="10" color-interpolation-filters="sRGB" filterUnits="userSpaceOnUse">
      <feFlood flood-color="#fff" result="bg"/>
      <feBlend in="SourceGraphic" in2="bg"/>
    </filter>
    <filter id="luminosity-noclip-2" x="0" y="-5690.03" width="520" height="32766" color-interpolation-filters="sRGB" filterUnits="userSpaceOnUse">
      <feFlood flood-color="#fff" result="bg"/>
      <feBlend in="SourceGraphic" in2="bg"/>
    </filter>
    <mask id="mask-1" x="0" y="-5690.03" width="520" height="32766" maskUnits="userSpaceOnUse"/>
    <linearGradient id="_名称未設定グラデーション_887" data-name="名称未設定グラデーション 887" x1="0" y1="5" x2="520" y2="5" gradientUnits="userSpaceOnUse">
      <stop offset="0" stop-color="#000"/>
      <stop offset=".28" stop-color="#fff"/>
      <stop offset=".34" stop-color="#fff"/>
      <stop offset=".35" stop-color="#fff"/>
      <stop offset=".41" stop-color="#fff"/>
      <stop offset=".46" stop-color="#fff"/>
      <stop offset=".55" stop-color="#fff"/>
      <stop offset=".63" stop-color="#fff"/>
      <stop offset=".72" stop-color="#fff"/>
      <stop offset="1" stop-color="#000"/>
    </linearGradient>
    <mask id="mask" x="0" y="0" width="520" height="10" maskUnits="userSpaceOnUse">
      <g class="cls-2">
        <g class="cls-3">
          <path class="cls-5" d="M520,4.67s-188.65,1.39-194.59,1.53c-19.68.48-32.37,2.3-32.37,2.3,0,0-4.24-1.53-8.48-2.3-4.24-.77-12.72-1.53-12.72-1.53,0,0,8.48-.77,12.72-1.53,4.24-.77,8.48-2.3,8.48-2.3,0,0,10.5,1.79,32.37,2.3,5.95.14,194.59,1.53,194.59,1.53ZM226.96.84s-10.5,1.79-32.37,2.3C188.64,3.28,0,4.67,0,4.67c0,0,188.65,1.39,194.59,1.53,19.68.48,32.37,2.3,32.37,2.3,0,0,4.24-1.53,8.48-2.3,4.24-.77,12.72-1.53,12.72-1.53,0,0-8.48-.77-12.72-1.53-4.24-.77-8.48-2.3-8.48-2.3ZM260,0s-1.51,2-3.02,3c-1.51,1-4.54,2-4.54,2,0,0,3.02,1,4.54,2,1.51,1,3.02,3,3.02,3,0,0,1.51-2,3.02-3,1.51-1,4.54-2,4.54-2,0,0-3.02-1-4.54-2s-3.02-3-3.02-3Z"/>
        </g>
      </g>
    </mask>
    <linearGradient id="_名称未設定グラデーション_110" data-name="名称未設定グラデーション 110" x1="0" y1="5" x2="520" y2="5" gradientUnits="userSpaceOnUse">
      <stop offset="0" stop-color="#926a26"/>
      <stop offset=".28" stop-color="#bb8f4b"/>
      <stop offset=".34" stop-color="#f8ef96"/>
      <stop offset=".34" stop-color="#e6d481"/>
      <stop offset=".35" stop-color="#d3b86b"/>
      <stop offset=".35" stop-color="#c3a058"/>
      <stop offset=".36" stop-color="#b78e4a"/>
      <stop offset=".37" stop-color="#ae8140"/>
      <stop offset=".38" stop-color="#a97a3a"/>
      <stop offset=".41" stop-color="#a87839"/>
      <stop offset=".44" stop-color="#e1c377"/>
      <stop offset=".46" stop-color="#f8e190"/>
      <stop offset=".55" stop-color="#d2b266"/>
      <stop offset=".6" stop-color="#ba924d"/>
      <stop offset=".63" stop-color="#a87839"/>
      <stop offset=".65" stop-color="#ac7d3c"/>
      <stop offset=".67" stop-color="#b88b47"/>
      <stop offset=".7" stop-color="#cba358"/>
      <stop offset=".72" stop-color="#e3c06d"/>
      <stop offset="1" stop-color="#926a26"/>
    </linearGradient>
  </defs>
  <g id="_例" data-name="例">
    <g class="cls-1">
      <path class="cls-4" d="M520,4.67s-188.65,1.39-194.59,1.53c-19.68.48-32.37,2.3-32.37,2.3,0,0-4.24-1.53-8.48-2.3-4.24-.77-12.72-1.53-12.72-1.53,0,0,8.48-.77,12.72-1.53,4.24-.77,8.48-2.3,8.48-2.3,0,0,10.5,1.79,32.37,2.3,5.95.14,194.59,1.53,194.59,1.53ZM226.96.84s-10.5,1.79-32.37,2.3C188.64,3.28,0,4.67,0,4.67c0,0,188.65,1.39,194.59,1.53,19.68.48,32.37,2.3,32.37,2.3,0,0,4.24-1.53,8.48-2.3,4.24-.77,12.72-1.53,12.72-1.53,0,0-8.48-.77-12.72-1.53-4.24-.77-8.48-2.3-8.48-2.3ZM260,0s-1.51,2-3.02,3c-1.51,1-4.54,2-4.54,2,0,0,3.02,1,4.54,2,1.51,1,3.02,3,3.02,3,0,0,1.51-2,3.02-3,1.51-1,4.54-2,4.54-2,0,0-3.02-1-4.54-2s-3.02-3-3.02-3Z"/>
    </g>
  </g>
</svg>